<svg width="113" height="32" viewBox="0 0 113 32" fill="none" xmlns="http://www.w3.org/2000/svg">
<g clip-path="url(#clip0_25_20)">
<rect width="112.316" height="32" rx="4" fill="black"/>
<path d="M8 10.953H9.20396V19.745H14.16V20.893H8V10.953ZM16.1146 19.857H19.0966V14.509H16.2546V13.473H20.2726V19.857H22.8346V20.893H16.1146V19.857ZM18.9846 10.939H20.2166V12.311H18.9846V10.939ZM27.7851 21.061C27.1038 21.061 26.5018 20.9023 25.9791 20.585C25.4658 20.2677 25.0691 19.815 24.7891 19.227C24.5091 18.639 24.3691 17.9577 24.3691 17.183C24.3691 16.4083 24.5091 15.727 24.7891 15.139C25.0691 14.551 25.4658 14.0983 25.9791 13.781C26.5018 13.4637 27.1038 13.305 27.7851 13.305C28.6158 13.305 29.3018 13.529 29.8431 13.977C30.3938 14.425 30.7438 15.0597 30.8931 15.881L29.6611 15.965C29.5491 15.4797 29.3251 15.1017 28.9891 14.831C28.6624 14.5603 28.2611 14.425 27.7851 14.425C27.1038 14.425 26.5671 14.6723 26.1751 15.167C25.7924 15.6523 25.6011 16.3243 25.6011 17.183C25.6011 18.0417 25.7924 18.7183 26.1751 19.213C26.5671 19.6983 27.1038 19.941 27.7851 19.941C28.2798 19.941 28.6951 19.7963 29.0311 19.507C29.3764 19.2177 29.6051 18.8023 29.7171 18.261L30.9491 18.345C30.7904 19.1757 30.4264 19.8383 29.8571 20.333C29.2971 20.8183 28.6064 21.061 27.7851 21.061ZM36.1096 21.061C35.419 21.061 34.817 20.9023 34.3036 20.585C33.7903 20.2677 33.3936 19.8197 33.1136 19.241C32.843 18.653 32.7076 17.967 32.7076 17.183C32.7076 16.4083 32.843 15.727 33.1136 15.139C33.3936 14.551 33.7856 14.0983 34.2896 13.781C34.7936 13.4637 35.3816 13.305 36.0536 13.305C36.6976 13.305 37.267 13.459 37.7616 13.767C38.2656 14.0657 38.653 14.509 38.9236 15.097C39.2036 15.685 39.3436 16.385 39.3436 17.197V17.547H33.9396C33.977 18.331 34.1823 18.9283 34.5556 19.339C34.9383 19.7403 35.4563 19.941 36.1096 19.941C36.5856 19.941 36.9776 19.8337 37.2856 19.619C37.603 19.395 37.827 19.087 37.9576 18.695L39.2176 18.793C39.0216 19.4743 38.6436 20.025 38.0836 20.445C37.533 20.8557 36.875 21.061 36.1096 21.061ZM38.0556 16.511C37.9996 15.8203 37.7943 15.3023 37.4396 14.957C37.085 14.6023 36.623 14.425 36.0536 14.425C35.475 14.425 34.999 14.6023 34.6256 14.957C34.2616 15.3117 34.033 15.8297 33.9396 16.511H38.0556ZM41.5222 13.473H42.6002L42.6282 14.803C42.8148 14.3083 43.1088 13.935 43.5102 13.683C43.9115 13.431 44.3782 13.305 44.9102 13.305C45.7222 13.305 46.3382 13.5663 46.7582 14.089C47.1875 14.6117 47.4022 15.2883 47.4022 16.119V20.893H46.2262V16.455C46.2262 15.755 46.1002 15.2277 45.8482 14.873C45.6055 14.5183 45.2088 14.341 44.6582 14.341C44.0702 14.341 43.5942 14.5277 43.2302 14.901C42.8755 15.265 42.6982 15.783 42.6982 16.455V20.893H41.5222V13.473ZM52.9127 21.061C52.2874 21.061 51.7367 20.9537 51.2607 20.739C50.794 20.515 50.4254 20.2163 50.1547 19.843C49.884 19.4603 49.73 19.031 49.6927 18.555L50.9247 18.471C50.9994 18.9377 51.2047 19.3017 51.5407 19.563C51.8767 19.815 52.334 19.941 52.9127 19.941C53.4727 19.941 53.902 19.8617 54.2007 19.703C54.4994 19.535 54.6487 19.2877 54.6487 18.961C54.6487 18.737 54.5974 18.5597 54.4947 18.429C54.392 18.289 54.2007 18.1723 53.9207 18.079C53.65 17.9763 53.2394 17.8783 52.6887 17.785C51.9794 17.6637 51.4194 17.505 51.0087 17.309C50.6074 17.113 50.318 16.875 50.1407 16.595C49.9727 16.315 49.8887 15.965 49.8887 15.545C49.8887 14.8823 50.136 14.3457 50.6307 13.935C51.1254 13.515 51.816 13.305 52.7027 13.305C53.5707 13.305 54.2567 13.529 54.7607 13.977C55.274 14.425 55.5914 14.9943 55.7127 15.685L54.4807 15.769C54.3967 15.3583 54.196 15.0317 53.8787 14.789C53.5707 14.5463 53.174 14.425 52.6887 14.425C52.166 14.425 51.7694 14.5277 51.4987 14.733C51.228 14.9383 51.0927 15.209 51.0927 15.545C51.0927 15.797 51.1534 15.9977 51.2747 16.147C51.396 16.287 51.5827 16.4037 51.8347 16.497C52.096 16.581 52.4647 16.665 52.9407 16.749C53.706 16.8703 54.2987 17.0243 54.7187 17.211C55.1387 17.3977 55.4327 17.631 55.6007 17.911C55.7687 18.1817 55.8527 18.5317 55.8527 18.961C55.8527 19.605 55.5774 20.1183 55.0267 20.501C54.476 20.8743 53.7714 21.061 52.9127 21.061ZM61.2932 21.061C60.6026 21.061 60.0006 20.9023 59.4872 20.585C58.9739 20.2677 58.5772 19.8197 58.2972 19.241C58.0266 18.653 57.8912 17.967 57.8912 17.183C57.8912 16.4083 58.0266 15.727 58.2972 15.139C58.5772 14.551 58.9692 14.0983 59.4732 13.781C59.9772 13.4637 60.5652 13.305 61.2372 13.305C61.8812 13.305 62.4506 13.459 62.9452 13.767C63.4492 14.0657 63.8366 14.509 64.1072 15.097C64.3872 15.685 64.5272 16.385 64.5272 17.197V17.547H59.1232C59.1606 18.331 59.3659 18.9283 59.7392 19.339C60.1219 19.7403 60.6399 19.941 61.2932 19.941C61.7692 19.941 62.1612 19.8337 62.4692 19.619C62.7866 19.395 63.0106 19.087 63.1412 18.695L64.4012 18.793C64.2052 19.4743 63.8272 20.025 63.2672 20.445C62.7166 20.8557 62.0586 21.061 61.2932 21.061ZM63.2392 16.511C63.1832 15.8203 62.9779 15.3023 62.6232 14.957C62.2686 14.6023 61.8066 14.425 61.2372 14.425C60.6586 14.425 60.1826 14.6023 59.8092 14.957C59.4452 15.3117 59.2166 15.8297 59.1232 16.511H63.2392Z" fill="#FFDC83"/>
<mask id="path-5-inside-1_25_20" fill="white">
<path d="M72.5272 0H112.316V32H72.5272V0Z"/>
</mask>
<path d="M72.5272 0H112.316V32H72.5272V0Z" fill="#FFDC83"/>
<path d="M72.5272 32H73.5272V0H72.5272H71.5272V32H72.5272Z" fill="#635943" mask="url(#path-5-inside-1_25_20)"/>
<path d="M81.7312 12.64V20.97H80.5272V11.03H82.3472L83.8872 17.946L85.4272 11.03H87.2472V20.97H86.0432V12.64L84.4192 19.85H83.3552L81.7312 12.64ZM89.2017 19.822H91.6797V12.178H89.2017V11.03H95.3617V12.178H92.8837V19.822H95.3617V20.97H89.2017V19.822ZM100.074 12.178H97.0362V11.03H104.316V12.178H101.278V20.97H100.074V12.178Z" fill="#100D0D"/>
</g>
<rect x="0.5" y="0.5" width="111.316" height="31" rx="3.5" stroke="#635943"/>
<defs>
<clipPath id="clip0_25_20">
<rect width="112.316" height="32" rx="4" fill="white"/>
</clipPath>
</defs>
</svg>
