<svg width="270" height="32" viewBox="0 0 270 32" fill="none" xmlns="http://www.w3.org/2000/svg">
<g clip-path="url(#clip0_25_2)">
<path d="M0 4C0 1.79086 1.79086 0 4 0H265.447C267.656 0 269.447 1.79086 269.447 4V28C269.447 30.2091 267.656 32 265.447 32H3.99999C1.79085 32 0 30.2091 0 28V4Z" fill="white"/>
<path d="M0 4C0 1.79086 1.79086 0 4 0H103.6V32H3.99999C1.79086 32 0 30.2091 0 28V4Z" fill="black"/>
<g clip-path="url(#clip1_25_2)">
<mask id="mask0_25_2" style="mask-type:luminance" maskUnits="userSpaceOnUse" x="8" y="7" width="88" height="18">
<path d="M95.6 7.52939H8V24.4706H95.6V7.52939Z" fill="white"/>
</mask>
<g mask="url(#mask0_25_2)">
<path d="M26.5387 8.94821C25.1221 8.28539 23.6073 7.80368 22.0237 7.52939C21.8292 7.88102 21.602 8.35397 21.4453 8.7302C19.7619 8.47703 18.0939 8.47703 16.4414 8.7302C16.2848 8.35397 16.0524 7.88102 15.8562 7.52939C14.2708 7.80368 12.7543 8.28716 11.3377 8.95172C8.48023 13.2696 7.70564 17.4803 8.09294 21.6312C9.98812 23.0465 11.8248 23.9062 13.6305 24.4688C14.0763 23.8552 14.4739 23.203 14.8165 22.5156C14.1641 22.2677 13.5392 21.9618 12.9488 21.6066C13.1055 21.4906 13.2587 21.3693 13.4067 21.2444C17.0077 22.9287 20.9203 22.9287 24.4783 21.2444C24.6281 21.3693 24.7812 21.4906 24.9362 21.6066C24.344 21.9635 23.7175 22.2694 23.0651 22.5173C23.4076 23.203 23.8036 23.857 24.2511 24.4706C26.0585 23.908 27.8969 23.0483 29.7921 21.6312C30.2465 16.8193 29.0158 12.6473 26.5387 8.94821ZM15.307 19.0785C14.2261 19.0785 13.3396 18.0693 13.3396 16.8404C13.3396 15.6114 14.2071 14.6005 15.307 14.6005C16.407 14.6005 17.2935 15.6097 17.2745 16.8404C17.2762 18.0693 16.407 19.0785 15.307 19.0785ZM22.578 19.0785C21.497 19.0785 20.6105 18.0693 20.6105 16.8404C20.6105 15.6114 21.478 14.6005 22.578 14.6005C23.6779 14.6005 24.5644 15.6097 24.5455 16.8404C24.5455 18.0693 23.6779 19.0785 22.578 19.0785Z" fill="#FFDC83"/>
<path d="M37.4088 11.8512H42.1079C43.2407 11.8512 44.1977 12.0323 44.9828 12.3927C45.7658 12.7531 46.3529 13.2559 46.742 13.8994C47.1308 14.5429 47.327 15.2795 47.327 16.1094C47.327 16.9216 47.1239 17.6583 46.7177 18.3175C46.3115 18.9786 45.6935 19.5008 44.8622 19.8858C44.0309 20.2708 43.0013 20.4642 41.7707 20.4642H37.4088V11.8512ZM41.7224 18.2754C42.485 18.2754 43.0721 18.0802 43.4816 17.6917C43.8914 17.3014 44.0963 16.7704 44.0963 16.0971C44.0963 15.4729 43.9136 14.9754 43.5488 14.6026C43.184 14.2299 42.6314 14.0418 41.8928 14.0418H40.4228V18.2754H41.7224Z" fill="#FFDC83"/>
<path d="M54.3623 20.4537C53.7116 20.2814 53.1245 20.0318 52.6031 19.703V17.6601C52.9973 17.9712 53.5256 18.2279 54.1883 18.4301C54.851 18.6305 55.4915 18.7307 56.111 18.7307C56.4002 18.7307 56.6189 18.6921 56.7668 18.6147C56.915 18.5374 56.9891 18.4442 56.9891 18.3369C56.9891 18.2139 56.9495 18.1119 56.8685 18.0293C56.7875 17.9466 56.6309 17.8781 56.3987 17.82L54.9527 17.4878C54.1247 17.2909 53.5376 17.0183 53.1884 16.6685C52.8389 16.3204 52.6649 15.8633 52.6649 15.2972C52.6649 14.8207 52.8164 14.4076 53.123 14.0542C53.4275 13.7008 53.8613 13.4283 54.4241 13.2366C54.9872 13.0433 55.6445 12.9466 56.4002 12.9466C57.0749 12.9466 57.6929 13.0204 58.256 13.1681C58.8188 13.3158 59.2835 13.5039 59.6537 13.7342V15.6664C59.2748 15.4361 58.841 15.255 58.3454 15.1178C57.8513 14.9825 57.3437 14.9156 56.8202 14.9156C56.0645 14.9156 55.6877 15.0475 55.6877 15.3095C55.6877 15.4325 55.7462 15.524 55.8632 15.5855C55.9802 15.647 56.1953 15.7103 56.507 15.7771L57.7118 15.9986C58.4987 16.1375 59.0855 16.3819 59.471 16.73C59.8568 17.0781 60.0494 17.5933 60.0494 18.2754C60.0494 19.0226 59.7311 19.6151 59.0924 20.0546C58.4537 20.4941 57.5483 20.7139 56.3744 20.7139C55.6841 20.7122 55.013 20.626 54.3623 20.4537Z" fill="#FFDC83"/>
<path d="M62.8934 20.1952C62.2034 19.8506 61.6817 19.3829 61.334 18.7922C60.9863 18.2015 60.8108 17.5369 60.8108 16.7985C60.8108 16.0601 60.9914 15.3991 61.3529 14.8171C61.7144 14.2352 62.2445 13.7781 62.9435 13.4458C63.6422 13.1135 64.4771 12.9482 65.4497 12.9482C66.6545 12.9482 67.6547 13.2067 68.45 13.7236V15.9757C68.1695 15.7788 67.8422 15.6188 67.4687 15.4958C67.0952 15.3727 66.6959 15.3111 66.269 15.3111C65.522 15.3111 64.9385 15.45 64.5167 15.7296C64.0949 16.0091 63.8834 16.373 63.8834 16.8249C63.8834 17.2679 64.088 17.6301 64.4978 17.9149C64.9076 18.198 65.5013 18.3404 66.281 18.3404C66.6821 18.3404 67.0781 18.2806 67.4687 18.1628C67.8578 18.0433 68.1935 17.8973 68.474 17.725V19.9033C67.5911 20.4448 66.5669 20.7156 65.4014 20.7156C64.4204 20.7121 63.5837 20.5398 62.8934 20.1952Z" fill="#FFDC83"/>
<path d="M71.4554 20.1952C70.76 19.8506 70.2299 19.3795 69.8648 18.7799C69.5 18.1804 69.3158 17.5124 69.3158 16.7739C69.3158 16.0355 69.4982 15.3762 69.8648 14.7978C70.2314 14.2194 70.7582 13.7658 71.4503 13.437C72.1403 13.1083 72.965 12.9448 73.9202 12.9448C74.8757 12.9448 75.7001 13.1083 76.3904 13.437C77.0807 13.7658 77.6075 14.2159 77.969 14.7908C78.3305 15.3657 78.5111 16.025 78.5111 16.7722C78.5111 17.5106 78.3305 18.1787 77.969 18.7782C77.6075 19.3777 77.0789 19.8489 76.3835 20.1935C75.6881 20.5381 74.867 20.7104 73.9187 20.7104C72.9701 20.7104 72.149 20.5398 71.4554 20.1952ZM75.1166 18.0116C75.4094 17.7128 75.5573 17.3172 75.5573 16.8249C75.5573 16.3327 75.4109 15.9406 75.1166 15.6505C74.8241 15.3587 74.4245 15.2127 73.9187 15.2127C73.4039 15.2127 73.001 15.3587 72.7067 15.6505C72.4142 15.9424 72.2678 16.3327 72.2678 16.8249C72.2678 17.3172 72.4142 17.7128 72.7067 18.0116C72.9995 18.3105 73.4039 18.4617 73.9187 18.4617C74.4245 18.46 74.8241 18.3105 75.1166 18.0116Z" fill="#FFDC83"/>
<path d="M85.751 13.4019V16.0601C85.4447 15.8544 85.0487 15.7524 84.5582 15.7524C83.9159 15.7524 83.4203 15.9511 83.0759 16.3485C82.73 16.7458 82.5578 17.3646 82.5578 18.2015V20.466H79.6058V13.2665H82.4978V15.5556C82.6577 14.7187 82.9178 14.1016 83.2757 13.7025C83.6321 13.3052 84.0932 13.1065 84.6545 13.1065C85.0796 13.1065 85.4447 13.205 85.751 13.4019Z" fill="#FFDC83"/>
<path d="M95.5592 11.6051V20.466H92.6069V18.8538C92.3573 19.4604 91.9787 19.9228 91.4693 20.2392C90.9596 20.5539 90.3296 20.7121 89.5826 20.7121C88.9148 20.7121 88.3331 20.5469 87.8354 20.2146C87.338 19.8823 86.9543 19.427 86.684 18.8485C86.4155 18.2701 86.2793 17.6161 86.2793 16.8847C86.2709 16.1305 86.4137 15.4536 86.708 14.8541C87.0008 14.2546 87.4154 13.7869 87.9491 13.4511C88.4828 13.1153 89.0921 12.9466 89.7755 12.9466C91.1819 12.9466 92.1251 13.5707 92.6069 14.8172V11.6051H95.5592ZM92.1665 17.9625C92.4677 17.6636 92.6174 17.275 92.6174 16.8004C92.6174 16.3415 92.471 15.967 92.1785 15.6804C91.8857 15.3939 91.4846 15.2497 90.9803 15.2497C90.4829 15.2497 90.0854 15.3956 89.7875 15.6874C89.4896 15.9793 89.3417 16.3573 89.3417 16.825C89.3417 17.2926 89.4896 17.6741 89.7875 17.9695C90.0854 18.2648 90.4778 18.4125 90.9683 18.4125C91.4657 18.4108 91.865 18.2613 92.1665 17.9625Z" fill="#FFDC83"/>
<path d="M49.8146 14.033C50.6273 14.033 51.2864 13.4284 51.2864 12.6827C51.2864 11.937 50.6273 11.3325 49.8146 11.3325C49.0016 11.3325 48.3428 11.937 48.3428 12.6827C48.3428 13.4284 49.0016 14.033 49.8146 14.033Z" fill="#FFDC83"/>
<path d="M48.3416 14.9631C49.2434 15.3604 50.3624 15.378 51.2849 14.9631V20.5046H48.3416V14.9631Z" fill="#FFDC83"/>
</g>
</g>
<mask id="path-14-inside-1_25_2" fill="white">
<path d="M103.6 0H269.447V32H103.6V0Z"/>
</mask>
<path d="M103.6 0H269.447V32H103.6V0Z" fill="#FFDC83"/>
<path d="M103.6 32H104.6V0H103.6H102.6V32H103.6Z" fill="#635943" mask="url(#path-14-inside-1_25_2)"/>
<path d="M114.89 20.151C113.901 20.151 113.112 19.8383 112.524 19.213C111.936 18.5877 111.628 17.7523 111.6 16.707L112.776 16.595C112.804 17.407 112.991 18.009 113.336 18.401C113.681 18.7837 114.199 18.975 114.89 18.975C116.281 18.975 116.976 18.1817 116.976 16.595V9.98699H118.18V16.595C118.18 17.6963 117.881 18.5643 117.284 19.199C116.696 19.8337 115.898 20.151 114.89 20.151ZM123.635 20.095C122.953 20.095 122.356 19.9363 121.843 19.619C121.339 19.3017 120.947 18.8537 120.667 18.275C120.387 17.687 120.247 17.001 120.247 16.217C120.247 15.433 120.387 14.7517 120.667 14.173C120.947 13.585 121.339 13.1323 121.843 12.815C122.356 12.4977 122.953 12.339 123.635 12.339C124.307 12.339 124.899 12.4977 125.413 12.815C125.926 13.1323 126.323 13.585 126.603 14.173C126.883 14.7517 127.023 15.433 127.023 16.217C127.023 17.001 126.883 17.687 126.603 18.275C126.323 18.8537 125.926 19.3017 125.413 19.619C124.899 19.9363 124.307 20.095 123.635 20.095ZM123.635 18.975C124.316 18.975 124.843 18.7323 125.217 18.247C125.599 17.7523 125.791 17.0757 125.791 16.217C125.791 15.3583 125.599 14.6863 125.217 14.201C124.843 13.7063 124.316 13.459 123.635 13.459C122.953 13.459 122.421 13.7017 122.039 14.187C121.665 14.6723 121.479 15.349 121.479 16.217C121.479 17.085 121.665 17.7617 122.039 18.247C122.421 18.7323 122.953 18.975 123.635 18.975ZM128.949 18.891H131.931V13.543H129.089V12.507H133.107V18.891H135.669V19.927H128.949V18.891ZM131.819 9.97299H133.051V11.345H131.819V9.97299ZM137.568 12.507H138.646L138.674 13.837C138.86 13.3423 139.154 12.969 139.556 12.717C139.957 12.465 140.424 12.339 140.956 12.339C141.768 12.339 142.384 12.6003 142.804 13.123C143.233 13.6457 143.448 14.3223 143.448 15.153V19.927H142.272V15.489C142.272 14.789 142.146 14.2617 141.894 13.907C141.651 13.5523 141.254 13.375 140.704 13.375C140.116 13.375 139.64 13.5617 139.276 13.935C138.921 14.299 138.744 14.817 138.744 15.489V19.927H137.568V12.507ZM157.213 20.095C156.531 20.095 155.934 19.9363 155.421 19.619C154.917 19.3017 154.525 18.8537 154.245 18.275C153.965 17.687 153.825 17.001 153.825 16.217C153.825 15.433 153.965 14.7517 154.245 14.173C154.525 13.585 154.917 13.1323 155.421 12.815C155.934 12.4977 156.531 12.339 157.213 12.339C157.885 12.339 158.477 12.4977 158.991 12.815C159.504 13.1323 159.901 13.585 160.181 14.173C160.461 14.7517 160.601 15.433 160.601 16.217C160.601 17.001 160.461 17.687 160.181 18.275C159.901 18.8537 159.504 19.3017 158.991 19.619C158.477 19.9363 157.885 20.095 157.213 20.095ZM157.213 18.975C157.894 18.975 158.421 18.7323 158.795 18.247C159.177 17.7523 159.369 17.0757 159.369 16.217C159.369 15.3583 159.177 14.6863 158.795 14.201C158.421 13.7063 157.894 13.459 157.213 13.459C156.531 13.459 155.999 13.7017 155.617 14.187C155.243 14.6723 155.057 15.349 155.057 16.217C155.057 17.085 155.243 17.7617 155.617 18.247C155.999 18.7323 156.531 18.975 157.213 18.975ZM165.089 20.095C164.352 20.095 163.764 19.8477 163.325 19.353C162.887 18.849 162.667 18.1583 162.667 17.281V12.507H163.843V16.959C163.843 17.6777 163.969 18.2097 164.221 18.555C164.483 18.891 164.879 19.059 165.411 19.059C165.99 19.059 166.447 18.8723 166.783 18.499C167.119 18.1163 167.287 17.5937 167.287 16.931V12.507H168.463V19.927H167.343V18.723C167.138 19.1617 166.844 19.5023 166.461 19.745C166.079 19.9783 165.621 20.095 165.089 20.095ZM171.062 18.891H172.994V13.543H171.062V12.507H173.974L174.058 13.935C174.31 12.983 174.902 12.507 175.836 12.507H177.362V13.571H175.85C175.308 13.571 174.893 13.7343 174.604 14.061C174.314 14.3783 174.17 14.8403 174.17 15.447V18.891H176.522V19.927H171.062V18.891ZM190.987 20.095C190.305 20.095 189.703 19.9363 189.181 19.619C188.667 19.3017 188.271 18.849 187.991 18.261C187.711 17.673 187.571 16.9917 187.571 16.217C187.571 15.4423 187.711 14.761 187.991 14.173C188.271 13.585 188.667 13.1323 189.181 12.815C189.703 12.4977 190.305 12.339 190.987 12.339C191.817 12.339 192.503 12.563 193.045 13.011C193.595 13.459 193.945 14.0937 194.095 14.915L192.863 14.999C192.751 14.5137 192.527 14.1357 192.191 13.865C191.864 13.5943 191.463 13.459 190.987 13.459C190.305 13.459 189.769 13.7063 189.377 14.201C188.994 14.6863 188.803 15.3583 188.803 16.217C188.803 17.0757 188.994 17.7523 189.377 18.247C189.769 18.7323 190.305 18.975 190.987 18.975C191.481 18.975 191.897 18.8303 192.233 18.541C192.578 18.2517 192.807 17.8363 192.919 17.295L194.151 17.379C193.992 18.2097 193.628 18.8723 193.059 19.367C192.499 19.8523 191.808 20.095 190.987 20.095ZM199.185 20.095C198.504 20.095 197.907 19.9363 197.393 19.619C196.889 19.3017 196.497 18.8537 196.217 18.275C195.937 17.687 195.797 17.001 195.797 16.217C195.797 15.433 195.937 14.7517 196.217 14.173C196.497 13.585 196.889 13.1323 197.393 12.815C197.907 12.4977 198.504 12.339 199.185 12.339C199.857 12.339 200.45 12.4977 200.963 12.815C201.477 13.1323 201.873 13.585 202.153 14.173C202.433 14.7517 202.573 15.433 202.573 16.217C202.573 17.001 202.433 17.687 202.153 18.275C201.873 18.8537 201.477 19.3017 200.963 19.619C200.45 19.9363 199.857 20.095 199.185 20.095ZM199.185 18.975C199.867 18.975 200.394 18.7323 200.767 18.247C201.15 17.7523 201.341 17.0757 201.341 16.217C201.341 15.3583 201.15 14.6863 200.767 14.201C200.394 13.7063 199.867 13.459 199.185 13.459C198.504 13.459 197.972 13.7017 197.589 14.187C197.216 14.6723 197.029 15.349 197.029 16.217C197.029 17.085 197.216 17.7617 197.589 18.247C197.972 18.7323 198.504 18.975 199.185 18.975ZM203.94 12.507H205.018L205.046 13.599C205.177 13.1977 205.368 12.8897 205.62 12.675C205.872 12.451 206.171 12.339 206.516 12.339C207.281 12.339 207.748 12.8243 207.916 13.795C208.037 13.3377 208.238 12.983 208.518 12.731C208.798 12.4697 209.129 12.339 209.512 12.339C210.109 12.339 210.543 12.549 210.814 12.969C211.085 13.389 211.22 14.075 211.22 15.027V19.927H210.044V15.167C210.044 14.523 209.974 14.0657 209.834 13.795C209.694 13.515 209.475 13.375 209.176 13.375C208.868 13.375 208.621 13.529 208.434 13.837C208.257 14.1357 208.168 14.5883 208.168 15.195V19.927H206.992V15.167C206.992 14.5323 206.922 14.075 206.782 13.795C206.651 13.515 206.432 13.375 206.124 13.375C205.816 13.375 205.569 13.529 205.382 13.837C205.205 14.1357 205.116 14.5883 205.116 15.195V19.927H203.94V12.507ZM212.334 12.507H213.412L213.44 13.599C213.571 13.1977 213.762 12.8897 214.014 12.675C214.266 12.451 214.565 12.339 214.91 12.339C215.676 12.339 216.142 12.8243 216.31 13.795C216.432 13.3377 216.632 12.983 216.912 12.731C217.192 12.4697 217.524 12.339 217.906 12.339C218.504 12.339 218.938 12.549 219.208 12.969C219.479 13.389 219.614 14.075 219.614 15.027V19.927H218.438V15.167C218.438 14.523 218.368 14.0657 218.228 13.795C218.088 13.515 217.869 13.375 217.57 13.375C217.262 13.375 217.015 13.529 216.828 13.837C216.651 14.1357 216.562 14.5883 216.562 15.195V19.927H215.386V15.167C215.386 14.5323 215.316 14.075 215.176 13.795C215.046 13.515 214.826 13.375 214.518 13.375C214.21 13.375 213.963 13.529 213.776 13.837C213.599 14.1357 213.51 14.5883 213.51 15.195V19.927H212.334V12.507ZM223.851 20.095C223.114 20.095 222.526 19.8477 222.087 19.353C221.648 18.849 221.429 18.1583 221.429 17.281V12.507H222.605V16.959C222.605 17.6777 222.731 18.2097 222.983 18.555C223.244 18.891 223.641 19.059 224.173 19.059C224.752 19.059 225.209 18.8723 225.545 18.499C225.881 18.1163 226.049 17.5937 226.049 16.931V12.507H227.225V19.927H226.105V18.723C225.9 19.1617 225.606 19.5023 225.223 19.745C224.84 19.9783 224.383 20.095 223.851 20.095ZM229.907 12.507H230.985L231.013 13.837C231.2 13.3423 231.494 12.969 231.895 12.717C232.297 12.465 232.763 12.339 233.295 12.339C234.107 12.339 234.723 12.6003 235.143 13.123C235.573 13.6457 235.787 14.3223 235.787 15.153V19.927H234.611V15.489C234.611 14.789 234.485 14.2617 234.233 13.907C233.991 13.5523 233.594 13.375 233.043 13.375C232.455 13.375 231.979 13.5617 231.615 13.935C231.261 14.299 231.083 14.817 231.083 15.489V19.927H229.907V12.507ZM238.078 18.891H241.06V13.543H238.218V12.507H242.236V18.891H244.798V19.927H238.078V18.891ZM240.948 9.97299H242.18V11.345H240.948V9.97299ZM250.645 19.927C249.926 19.927 249.389 19.759 249.035 19.423C248.68 19.087 248.503 18.5737 248.503 17.883V13.543H246.053V12.507H248.503V10.547H249.679V12.507H252.633V13.543H249.679V17.883C249.679 18.2283 249.758 18.485 249.917 18.653C250.075 18.8117 250.318 18.891 250.645 18.891H252.633V19.927H250.645ZM255.679 20.991H256.533C256.785 20.991 256.972 20.949 257.093 20.865C257.224 20.7903 257.326 20.6643 257.401 20.487L257.667 19.787H257.261L254.503 12.507H255.791L258.045 18.695L260.159 12.507H261.447L258.437 20.865C258.297 21.2663 258.087 21.5603 257.807 21.747C257.527 21.9337 257.14 22.027 256.645 22.027H255.679V20.991Z" fill="#100D0D"/>
</g>
<path d="M4 0.5H265.447C267.38 0.500144 268.947 2.06709 268.947 4V28C268.947 29.9329 267.38 31.4999 265.447 31.5H4C2.067 31.5 0.5 29.933 0.5 28V4C0.5 2.067 2.067 0.5 4 0.5Z" stroke="#635943"/>
<defs>
<clipPath id="clip0_25_2">
<path d="M0 4C0 1.79086 1.79086 0 4 0H265.447C267.656 0 269.447 1.79086 269.447 4V28C269.447 30.2091 267.656 32 265.447 32H3.99999C1.79085 32 0 30.2091 0 28V4Z" fill="white"/>
</clipPath>
<clipPath id="clip1_25_2">
<rect width="87.6" height="24" fill="white" transform="translate(8 4)"/>
</clipPath>
</defs>
</svg>
